<svg width="8" height="8" viewBox="0 0 8 8" fill="none" xmlns="http://www.w3.org/2000/svg">
<g clip-path="url(#clip0_53_303)">
<path d="M1 2H1.66667H7" stroke="#DE1A26" stroke-linecap="round" stroke-linejoin="round"/>
<path d="M6.33341 2.00001V6.66667C6.33341 6.84348 6.26318 7.01305 6.13815 7.13808C6.01313 7.2631 5.84356 7.33334 5.66675 7.33334H2.33341C2.1566 7.33334 1.98703 7.2631 1.86201 7.13808C1.73699 7.01305 1.66675 6.84348 1.66675 6.66667V2.00001M2.66675 2.00001V1.33334C2.66675 1.15653 2.73699 0.986958 2.86201 0.861934C2.98703 0.73691 3.1566 0.666672 3.33341 0.666672H4.66675C4.84356 0.666672 5.01313 0.73691 5.13815 0.861934C5.26318 0.986958 5.33341 1.15653 5.33341 1.33334V2.00001" stroke="#DE1A26" stroke-linecap="round" stroke-linejoin="round"/>
</g>
<defs>
<clipPath id="clip0_53_303">
<rect width="8" height="8" fill="white"/>
</clipPath>
</defs>
</svg>
