<svg width="12" height="12" viewBox="0 0 12 12" fill="none" xmlns="http://www.w3.org/2000/svg">
<g clip-path="url(#clip0_60_41)">
<path d="M6 11C7.3807 11 8.6307 10.4404 9.53553 9.53553C10.4404 8.6307 11 7.3807 11 6C11 4.6193 10.4404 3.3693 9.53553 2.46446C8.6307 1.55964 7.3807 1 6 1C4.6193 1 3.3693 1.55964 2.46446 2.46446C1.55964 3.3693 1 4.6193 1 6C1 7.3807 1.55964 8.6307 2.46446 9.53553C3.3693 10.4404 4.6193 11 6 11Z" stroke="black" stroke-linejoin="round"/>
<path d="M6 7.1562V6.1562C6.82842 6.1562 7.5 5.48463 7.5 4.6562C7.5 3.82778 6.82842 3.1562 6 3.1562C5.17158 3.1562 4.5 3.82778 4.5 4.6562" stroke="black" stroke-linecap="round" stroke-linejoin="round"/>
<path fill-rule="evenodd" clip-rule="evenodd" d="M6 9.4062C6.34518 9.4062 6.625 9.12638 6.625 8.7812C6.625 8.43603 6.34518 8.1562 6 8.1562C5.65483 8.1562 5.375 8.43603 5.375 8.7812C5.375 9.12638 5.65483 9.4062 6 9.4062Z" fill="black"/>
</g>
<defs>
<clipPath id="clip0_60_41">
<rect width="12" height="12" fill="white"/>
</clipPath>
</defs>
</svg>
