<svg width="9" height="9" viewBox="0 0 9 9" fill="none" xmlns="http://www.w3.org/2000/svg">
<g clip-path="url(#clip0_85_939)">
<path d="M4.5 6.9375C5.84619 6.9375 6.9375 5.84619 6.9375 4.5C6.9375 3.15381 5.84619 2.0625 4.5 2.0625C3.15381 2.0625 2.0625 3.15381 2.0625 4.5C2.0625 5.84619 3.15381 6.9375 4.5 6.9375Z" stroke="white" stroke-linejoin="round"/>
<path d="M4.5 1.125C4.75888 1.125 4.96875 0.915133 4.96875 0.65625C4.96875 0.397367 4.75888 0.1875 4.5 0.1875C4.24112 0.1875 4.03125 0.397367 4.03125 0.65625C4.03125 0.915133 4.24112 1.125 4.5 1.125Z" fill="white"/>
<path d="M7.21875 2.25C7.47763 2.25 7.6875 2.04013 7.6875 1.78125C7.6875 1.52237 7.47763 1.3125 7.21875 1.3125C6.95987 1.3125 6.75 1.52237 6.75 1.78125C6.75 2.04013 6.95987 2.25 7.21875 2.25Z" fill="white"/>
<path d="M8.34375 4.96875C8.60263 4.96875 8.8125 4.75888 8.8125 4.5C8.8125 4.24112 8.60263 4.03125 8.34375 4.03125C8.08487 4.03125 7.875 4.24112 7.875 4.5C7.875 4.75888 8.08487 4.96875 8.34375 4.96875Z" fill="white"/>
<path d="M7.21875 7.6875C7.47763 7.6875 7.6875 7.47763 7.6875 7.21875C7.6875 6.95987 7.47763 6.75 7.21875 6.75C6.95987 6.75 6.75 6.95987 6.75 7.21875C6.75 7.47763 6.95987 7.6875 7.21875 7.6875Z" fill="white"/>
<path d="M4.5 8.8125C4.75888 8.8125 4.96875 8.60263 4.96875 8.34375C4.96875 8.08487 4.75888 7.875 4.5 7.875C4.24112 7.875 4.03125 8.08487 4.03125 8.34375C4.03125 8.60263 4.24112 8.8125 4.5 8.8125Z" fill="white"/>
<path d="M1.78125 7.6875C2.04013 7.6875 2.25 7.47763 2.25 7.21875C2.25 6.95987 2.04013 6.75 1.78125 6.75C1.52237 6.75 1.3125 6.95987 1.3125 7.21875C1.3125 7.47763 1.52237 7.6875 1.78125 7.6875Z" fill="white"/>
<path d="M0.65625 4.96875C0.915133 4.96875 1.125 4.75888 1.125 4.5C1.125 4.24112 0.915133 4.03125 0.65625 4.03125C0.397367 4.03125 0.1875 4.24112 0.1875 4.5C0.1875 4.75888 0.397367 4.96875 0.65625 4.96875Z" fill="white"/>
<path d="M1.78125 2.25C2.04013 2.25 2.25 2.04013 2.25 1.78125C2.25 1.52237 2.04013 1.3125 1.78125 1.3125C1.52237 1.3125 1.3125 1.52237 1.3125 1.78125C1.3125 2.04013 1.52237 2.25 1.78125 2.25Z" fill="white"/>
</g>
<defs>
<clipPath id="clip0_85_939">
<rect width="9" height="9" fill="white"/>
</clipPath>
</defs>
</svg>
